<svg width="300" height="300" viewBox="0 0 300 300" fill="none" xmlns="http://www.w3.org/2000/svg">
<mask id="mask0_2821_264" style="mask-type:alpha" maskUnits="userSpaceOnUse" x="0" y="0" width="300" height="300">
<rect width="300" height="300" fill="#D9D9D9"/>
</mask>
<g mask="url(#mask0_2821_264)">
<line x1="-185.257" y1="160.669" x2="165.18" y2="-189.768" stroke="#222222" stroke-opacity="0.15" stroke-width="5"/>
<line x1="-178.185" y1="167.74" x2="172.251" y2="-182.696" stroke="#222222" stroke-opacity="0.15" stroke-width="5"/>
<line x1="-171.114" y1="174.811" x2="179.322" y2="-175.625" stroke="#222222" stroke-opacity="0.15" stroke-width="5"/>
<line x1="-164.043" y1="181.882" x2="186.393" y2="-168.554" stroke="#222222" stroke-opacity="0.15" stroke-width="5"/>
<line x1="-156.972" y1="188.953" x2="193.464" y2="-161.483" stroke="#222222" stroke-opacity="0.15" stroke-width="5"/>
<line x1="-149.901" y1="196.024" x2="200.535" y2="-154.412" stroke="#222222" stroke-opacity="0.15" stroke-width="5"/>
<line x1="-142.83" y1="203.095" x2="207.606" y2="-147.341" stroke="#222222" stroke-opacity="0.15" stroke-width="5"/>
<line x1="-135.759" y1="210.166" x2="214.677" y2="-140.27" stroke="#222222" stroke-opacity="0.15" stroke-width="5"/>
<line x1="-128.688" y1="217.237" x2="221.748" y2="-133.199" stroke="#222222" stroke-opacity="0.15" stroke-width="5"/>
<line x1="-121.617" y1="224.308" x2="228.819" y2="-126.128" stroke="#222222" stroke-opacity="0.15" stroke-width="5"/>
<line x1="-114.546" y1="231.379" x2="235.89" y2="-119.057" stroke="#222222" stroke-opacity="0.15" stroke-width="5"/>
<line x1="-107.475" y1="238.45" x2="242.961" y2="-111.986" stroke="#222222" stroke-opacity="0.15" stroke-width="5"/>
<line x1="-100.404" y1="245.521" x2="250.033" y2="-104.915" stroke="#222222" stroke-opacity="0.15" stroke-width="5"/>
<line x1="-93.3327" y1="252.592" x2="257.103" y2="-97.8437" stroke="#222222" stroke-opacity="0.15" stroke-width="5"/>
<line x1="-86.2614" y1="259.663" x2="264.175" y2="-90.7727" stroke="#222222" stroke-opacity="0.15" stroke-width="5"/>
<line x1="-79.1906" y1="266.734" x2="271.245" y2="-83.7016" stroke="#222222" stroke-opacity="0.15" stroke-width="5"/>
<line x1="-72.1193" y1="273.805" x2="278.317" y2="-76.6306" stroke="#222222" stroke-opacity="0.15" stroke-width="5"/>
<line x1="-65.0485" y1="280.877" x2="285.388" y2="-69.5593" stroke="#222222" stroke-opacity="0.15" stroke-width="5"/>
<line x1="-57.9772" y1="287.948" x2="292.459" y2="-62.4882" stroke="#222222" stroke-opacity="0.15" stroke-width="5"/>
<line x1="-50.9064" y1="295.019" x2="299.53" y2="-55.4172" stroke="#222222" stroke-opacity="0.15" stroke-width="5"/>
<line x1="-43.8351" y1="302.09" x2="306.601" y2="-48.3461" stroke="#222222" stroke-opacity="0.15" stroke-width="5"/>
<line x1="-36.7643" y1="309.161" x2="313.672" y2="-41.2751" stroke="#222222" stroke-opacity="0.15" stroke-width="5"/>
<line x1="-29.6931" y1="316.232" x2="320.743" y2="-34.204" stroke="#222222" stroke-opacity="0.15" stroke-width="5"/>
<line x1="-22.6218" y1="323.303" x2="327.814" y2="-27.133" stroke="#222222" stroke-opacity="0.15" stroke-width="5"/>
<line x1="-15.551" y1="330.374" x2="334.885" y2="-20.062" stroke="#222222" stroke-opacity="0.15" stroke-width="5"/>
<line x1="-8.47968" y1="337.445" x2="341.956" y2="-12.9909" stroke="#222222" stroke-opacity="0.15" stroke-width="5"/>
<line x1="-1.40888" y1="344.516" x2="349.027" y2="-5.91987" stroke="#222222" stroke-opacity="0.15" stroke-width="5"/>
<line x1="5.66241" y1="351.587" x2="356.098" y2="1.15142" stroke="#222222" stroke-opacity="0.15" stroke-width="5"/>
<line x1="12.7332" y1="358.659" x2="363.169" y2="8.22247" stroke="#222222" stroke-opacity="0.15" stroke-width="5"/>
<line x1="19.8045" y1="365.73" x2="370.241" y2="15.2935" stroke="#222222" stroke-opacity="0.15" stroke-width="5"/>
<line x1="26.8753" y1="372.801" x2="377.311" y2="22.3648" stroke="#222222" stroke-opacity="0.15" stroke-width="5"/>
<line x1="33.9466" y1="379.872" x2="384.383" y2="29.4356" stroke="#222222" stroke-opacity="0.15" stroke-width="5"/>
<line x1="41.0174" y1="386.943" x2="391.453" y2="36.5069" stroke="#222222" stroke-opacity="0.15" stroke-width="5"/>
<line x1="48.0887" y1="394.014" x2="398.525" y2="43.5777" stroke="#222222" stroke-opacity="0.15" stroke-width="5"/>
<line x1="55.16" y1="401.085" x2="405.596" y2="50.6487" stroke="#222222" stroke-opacity="0.15" stroke-width="5"/>
<line x1="62.2308" y1="408.156" x2="412.667" y2="57.7198" stroke="#222222" stroke-opacity="0.15" stroke-width="5"/>
<line x1="69.3021" y1="415.227" x2="419.738" y2="64.7908" stroke="#222222" stroke-opacity="0.15" stroke-width="5"/>
<line x1="74.7435" y1="423.669" x2="425.18" y2="73.2325" stroke="#222222" stroke-opacity="0.15" stroke-width="5"/>
<line x1="80.1844" y1="432.11" x2="430.62" y2="81.6739" stroke="#222222" stroke-opacity="0.15" stroke-width="5"/>
<line x1="85.6253" y1="440.551" x2="436.061" y2="90.1153" stroke="#222222" stroke-opacity="0.15" stroke-width="5"/>
<line x1="91.0662" y1="448.993" x2="441.502" y2="98.5567" stroke="#222222" stroke-opacity="0.15" stroke-width="5"/>
<line x1="96.5076" y1="457.434" x2="446.944" y2="106.998" stroke="#222222" stroke-opacity="0.15" stroke-width="5"/>
<line x1="101.949" y1="465.875" x2="452.385" y2="115.439" stroke="#222222" stroke-opacity="0.15" stroke-width="5"/>
<line x1="107.389" y1="474.317" x2="457.826" y2="123.881" stroke="#222222" stroke-opacity="0.15" stroke-width="5"/>
<line x1="112.83" y1="482.758" x2="463.266" y2="132.322" stroke="#222222" stroke-opacity="0.15" stroke-width="5"/>
<line x1="118.271" y1="491.2" x2="468.707" y2="140.764" stroke="#222222" stroke-opacity="0.15" stroke-width="5"/>
<line x1="123.712" y1="499.641" x2="474.148" y2="149.205" stroke="#222222" stroke-opacity="0.15" stroke-width="5"/>
<line x1="129.153" y1="508.083" x2="479.589" y2="157.647" stroke="#222222" stroke-opacity="0.15" stroke-width="5"/>
<line x1="134.594" y1="516.524" x2="485.03" y2="166.088" stroke="#222222" stroke-opacity="0.15" stroke-width="5"/>
<line x1="140.035" y1="524.966" x2="490.471" y2="174.53" stroke="#222222" stroke-opacity="0.15" stroke-width="5"/>
<line x1="145.476" y1="533.407" x2="495.912" y2="182.971" stroke="#222222" stroke-opacity="0.15" stroke-width="5"/>
<line x1="150.917" y1="541.848" x2="501.353" y2="191.412" stroke="#222222" stroke-opacity="0.15" stroke-width="5"/>
<line x1="156.358" y1="550.29" x2="506.794" y2="199.854" stroke="#222222" stroke-opacity="0.15" stroke-width="5"/>
<line x1="161.799" y1="558.731" x2="512.235" y2="208.295" stroke="#222222" stroke-opacity="0.15" stroke-width="5"/>
<line x1="167.24" y1="567.172" x2="517.676" y2="216.736" stroke="#222222" stroke-opacity="0.15" stroke-width="5"/>
<line x1="172.68" y1="575.614" x2="523.117" y2="225.178" stroke="#222222" stroke-opacity="0.15" stroke-width="5"/>
<line x1="178.121" y1="584.055" x2="528.557" y2="233.619" stroke="#222222" stroke-opacity="0.15" stroke-width="5"/>
<line x1="183.562" y1="592.497" x2="533.998" y2="242.061" stroke="#222222" stroke-opacity="0.15" stroke-width="5"/>
<line x1="189.003" y1="600.938" x2="539.439" y2="250.502" stroke="#222222" stroke-opacity="0.15" stroke-width="5"/>
<line x1="194.444" y1="609.38" x2="544.88" y2="258.944" stroke="#222222" stroke-opacity="0.15" stroke-width="5"/>
<line x1="199.885" y1="617.821" x2="550.321" y2="267.385" stroke="#222222" stroke-opacity="0.15" stroke-width="5"/>
<line x1="205.326" y1="626.263" x2="555.762" y2="275.826" stroke="#222222" stroke-opacity="0.15" stroke-width="5"/>
<line x1="210.767" y1="634.704" x2="561.203" y2="284.268" stroke="#222222" stroke-opacity="0.15" stroke-width="5"/>
<line x1="216.208" y1="643.145" x2="566.644" y2="292.709" stroke="#222222" stroke-opacity="0.15" stroke-width="5"/>
<line x1="221.649" y1="651.587" x2="572.085" y2="301.151" stroke="#222222" stroke-opacity="0.15" stroke-width="5"/>
</g>
</svg>
